<?xml version="1.0" encoding="utf-8"?>
<!-- Generator: Adobe Illustrator 24.1.2, SVG Export Plug-In . SVG Version: 6.00 Build 0)  -->
<svg version="1.1" xmlns="http://www.w3.org/2000/svg" xmlns:xlink="http://www.w3.org/1999/xlink" x="0px" y="0px"
	 viewBox="0 0 186 328.44" style="enable-background:new 0 0 186 328.44;" xml:space="preserve">
<style type="text/css">
	.st0{fill-rule:evenodd;clip-rule:evenodd;fill:url(#SVGID_1_);stroke:#231F20;stroke-width:0.216;stroke-miterlimit:2.6131;}
	.st1{fill-rule:evenodd;clip-rule:evenodd;fill:url(#SVGID_2_);}
	.st2{fill-rule:evenodd;clip-rule:evenodd;fill:url(#SVGID_3_);}
	.st3{fill-rule:evenodd;clip-rule:evenodd;fill:url(#SVGID_4_);stroke:#231F20;stroke-width:0.216;stroke-miterlimit:2.6131;}
	.st4{fill-rule:evenodd;clip-rule:evenodd;fill:url(#SVGID_5_);}
	.st5{fill-rule:evenodd;clip-rule:evenodd;}
	.st6{fill-rule:evenodd;clip-rule:evenodd;fill:url(#trafic-red_1_);}
	.st7{fill-rule:evenodd;clip-rule:evenodd;fill:url(#trafic-green_1_);}
	.st8{fill-rule:evenodd;clip-rule:evenodd;fill:url(#SVGID_6_);stroke:#231F20;stroke-width:0.216;stroke-miterlimit:2.6131;}
	.st9{fill-rule:evenodd;clip-rule:evenodd;fill:url(#SVGID_7_);stroke:#231F20;stroke-width:0.216;stroke-miterlimit:2.6131;}
</style>
<g id="Layer_2">
	<linearGradient id="SVGID_1_" gradientUnits="userSpaceOnUse" x1="-17.4518" y1="-55.2732" x2="204.8585" y2="78.3044">
		<stop  offset="0" style="stop-color:#231F20"/>
		<stop  offset="0.2567" style="stop-color:#252122"/>
		<stop  offset="0.3491" style="stop-color:#2B2829"/>
		<stop  offset="0.415" style="stop-color:#363334"/>
		<stop  offset="0.4683" style="stop-color:#464445"/>
		<stop  offset="0.514" style="stop-color:#5A595B"/>
		<stop  offset="0.5536" style="stop-color:#737476"/>
		<stop  offset="0.5894" style="stop-color:#909295"/>
		<stop  offset="0.59" style="stop-color:#919396"/>
		<stop  offset="0.6423" style="stop-color:#737375"/>
		<stop  offset="0.7037" style="stop-color:#565557"/>
		<stop  offset="0.7682" style="stop-color:#3F3D3F"/>
		<stop  offset="0.8361" style="stop-color:#2F2C2D"/>
		<stop  offset="0.9098" style="stop-color:#262223"/>
		<stop  offset="1" style="stop-color:#231F20"/>
	</linearGradient>
	<path class="st0" d="M31.47,17.36h124.47c3.98,0,7.24-1.21,7.24-2.69V8.36c0-1.48-3.26-2.69-7.24-2.69H31.47
		c-3.98,0-7.24,1.21-7.24,2.69v6.32C24.23,16.15,27.49,17.36,31.47,17.36z"/>
	<linearGradient id="SVGID_2_" gradientUnits="userSpaceOnUse" x1="1046.6002" y1="2448.3547" x2="-984.5389" y2="-2113.6584">
		<stop  offset="0" style="stop-color:#231F20"/>
		<stop  offset="0.24" style="stop-color:#231F20"/>
		<stop  offset="0.4396" style="stop-color:#393839"/>
		<stop  offset="0.46" style="stop-color:#8E9092"/>
		<stop  offset="0.5055" style="stop-color:#231F20"/>
		<stop  offset="0.5934" style="stop-color:#302D2F"/>
	</linearGradient>
	<path class="st1" d="M16.59,288.29V41.95c0-15.23,12.46-27.69,27.69-27.69h-10.5c-15.23,0-27.69,12.46-27.69,27.69v246.34
		c0,15.23,12.46,27.69,27.69,27.69h10.5C29.05,315.99,16.59,303.52,16.59,288.29z"/>
	<linearGradient id="SVGID_3_" gradientUnits="userSpaceOnUse" x1="1172.3308" y1="2443.9824" x2="-858.9003" y2="-2118.2371">
		<stop  offset="0" style="stop-color:#231F20"/>
		<stop  offset="0.24" style="stop-color:#231F20"/>
		<stop  offset="0.4" style="stop-color:#393839"/>
		<stop  offset="0.55" style="stop-color:#8E9092"/>
		<stop  offset="0.68" style="stop-color:#231F20"/>
		<stop  offset="0.88" style="stop-color:#302D2F"/>
		<stop  offset="1" style="stop-color:#77787B"/>
	</linearGradient>
	<path class="st2" d="M171.17,288.29V41.95c0-15.23-12.46-27.69-27.69-27.69h10.5c15.23,0,27.69,12.46,27.69,27.69v246.34
		c0,15.23-12.46,27.69-27.69,27.69h-10.5C158.71,315.99,171.17,303.52,171.17,288.29z"/>
	<linearGradient id="SVGID_4_" gradientUnits="userSpaceOnUse" x1="80.9873" y1="320.4905" x2="106.4217" y2="320.4905">
		<stop  offset="0" style="stop-color:#231F20"/>
		<stop  offset="0.3" style="stop-color:#808285"/>
		<stop  offset="0.59" style="stop-color:#919396"/>
		<stop  offset="1" style="stop-color:#231F20"/>
	</linearGradient>
	<path class="st3" d="M60.2,325.67h67.01c2.14,0,3.9-1.07,3.9-2.38v-5.6c0-1.31-1.75-2.38-3.9-2.38H60.2c-2.14,0-3.9,1.07-3.9,2.38
		v5.6C56.3,324.6,58.06,325.67,60.2,325.67z"/>
	<linearGradient id="SVGID_5_" gradientUnits="userSpaceOnUse" x1="663.7589" y1="468.2267" x2="-476.3506" y2="-137.9803">
		<stop  offset="0" style="stop-color:#231F20"/>
		<stop  offset="0.24" style="stop-color:#231F20"/>
		<stop  offset="0.4396" style="stop-color:#393839"/>
		<stop  offset="0.46" style="stop-color:#8E9092"/>
		<stop  offset="0.5055" style="stop-color:#231F20"/>
		<stop  offset="0.5934" style="stop-color:#302D2F"/>
	</linearGradient>
	<path class="st4" d="M147.17,14.26H40.23c-15.23,0-27.69,12.46-27.69,27.69v246.34c0,15.23,12.46,27.69,27.69,27.69h106.94
		c15.23,0,27.69-12.46,27.69-27.69V41.95C174.86,26.72,162.4,14.26,147.17,14.26z M93.7,290.56c-30.9,0-56.1-25.2-56.1-56.1
		s25.2-56.1,56.1-56.1s56.1,25.2,56.1,56.1S124.6,290.56,93.7,290.56z M93.7,148.63c-30.9,0-56.1-25.2-56.1-56.1
		c0-30.9,25.2-56.1,56.1-56.1s56.1,25.2,56.1,56.1C149.8,123.44,124.6,148.63,93.7,148.63z"/>
	<path class="st5" d="M93.7,30.71c-34.05,0-61.82,27.77-61.82,61.83c0,34.05,27.77,61.82,61.82,61.82
		c34.05,0,61.82-27.77,61.82-61.82C155.53,58.49,127.76,30.71,93.7,30.71z M93.7,148.63c-30.9,0-56.1-25.2-56.1-56.1
		c0-30.9,25.2-56.1,56.1-56.1s56.1,25.2,56.1,56.1C149.8,123.44,124.6,148.63,93.7,148.63z"/>
	<path class="st5" d="M93.7,172.64c-34.05,0-61.82,27.77-61.82,61.82c0,34.05,27.77,61.82,61.82,61.82
		c34.05,0,61.82-27.77,61.82-61.82C155.53,200.41,127.76,172.64,93.7,172.64z M93.7,290.56c-30.9,0-56.1-25.2-56.1-56.1
		s25.2-56.1,56.1-56.1s56.1,25.2,56.1,56.1S124.6,290.56,93.7,290.56z"/>
	<circle class="st5" cx="93.7" cy="92.54" r="56.1"/>
	<path class="st5" d="M93.7,290.56c30.9,0,56.1-25.2,56.1-56.1s-25.2-56.1-56.1-56.1s-56.1,25.2-56.1,56.1S62.81,290.56,93.7,290.56
		z"/>
</g>
<g id="Layer_6">
	<radialGradient id="trafic-red_1_" cx="93.7041" cy="92.5389" r="79.3307" gradientUnits="userSpaceOnUse">
		<stop  offset="0" style="stop-color:#EE2229"/>
		<stop  offset="0.37" style="stop-color:#EA1D28"/>
		<stop  offset="0.8" style="stop-color:#A12A30"/>
		<stop  offset="1" style="stop-color:#8E2D30"/>
	</radialGradient>
	<circle id="trafic-red" class="st6" cx="93.7" cy="92.54" r="56.1"/>
	<radialGradient id="trafic-green_1_" cx="93.7041" cy="234.4658" r="79.3305" gradientUnits="userSpaceOnUse">
		<stop  offset="0" style="stop-color:#CFDD32"/>
		<stop  offset="0.22" style="stop-color:#C1D437"/>
		<stop  offset="0.72" style="stop-color:#267140"/>
		<stop  offset="1" style="stop-color:#0A623B"/>
	</radialGradient>
	<path id="trafic-green" class="st7" d="M93.7,290.56c30.9,0,56.1-25.2,56.1-56.1s-25.2-56.1-56.1-56.1s-56.1,25.2-56.1,56.1
		S62.81,290.56,93.7,290.56z"/>
</g>
<g id="Layer_4">
	<linearGradient id="SVGID_6_" gradientUnits="userSpaceOnUse" x1="76.0185" y1="76.4587" x2="115.1667" y2="99.061">
		<stop  offset="0" style="stop-color:#545456"/>
		<stop  offset="0.15" style="stop-color:#808285"/>
		<stop  offset="0.4" style="stop-color:#A5A7A9"/>
		<stop  offset="0.62" style="stop-color:#919396"/>
		<stop  offset="0.87" style="stop-color:#6B6C6F"/>
		<stop  offset="1" style="stop-color:#231F20"/>
	</linearGradient>
	<path class="st8" d="M156.16,90.32c0-35.36-27.83-64.04-62.14-64.04c-34.31,0-62.14,28.68-62.14,64.04c0,13.41,4,25.86,10.84,36.14
		c-6.13-10.28-9.43-23.24-8.46-38.57c2.69-42.24,27.06-46.43,59.08-46.43c32.03,0,60.44,6.96,59.55,48.73
		c-0.9,41.77-27.52,64.12-59.55,64.12c-1.28,0-2.55-0.04-3.82-0.11c1.48,0.11,2.98,0.16,4.5,0.16
		C128.33,154.36,156.16,125.69,156.16,90.32z"/>
	<linearGradient id="SVGID_7_" gradientUnits="userSpaceOnUse" x1="76.0189" y1="218.3858" x2="115.1672" y2="240.9881">
		<stop  offset="0" style="stop-color:#545456"/>
		<stop  offset="0.15" style="stop-color:#808285"/>
		<stop  offset="0.4" style="stop-color:#A5A7A9"/>
		<stop  offset="0.62" style="stop-color:#919396"/>
		<stop  offset="0.87" style="stop-color:#6B6C6F"/>
		<stop  offset="1" style="stop-color:#231F20"/>
	</linearGradient>
	<path class="st9" d="M156.16,232.25c0-35.36-27.83-64.04-62.14-64.04c-34.31,0-62.14,28.68-62.14,64.04
		c0,13.41,4,25.86,10.84,36.14c-6.13-10.28-9.43-23.24-8.46-38.57c2.69-42.24,27.06-46.43,59.08-46.43
		c32.03,0,60.44,6.96,59.55,48.73c-0.9,41.77-27.52,64.12-59.55,64.12c-1.28,0-2.55-0.04-3.82-0.12c1.48,0.11,2.98,0.16,4.5,0.16
		C128.33,296.29,156.16,267.61,156.16,232.25z"/>
</g>
</svg>
